# xmcd CD database file
#
# Track frame offsets:
#	150
#	30224
#	57201
#	96310
#	110264
#	145855
#	175325
#
# Disc length: 3013 seconds
#
# Revision: 1
# Processed by: cddbd v1.4PL0 Copyright (c) Steve Scherf et al.
# Submitted via: CDex 1.51
#
DISCID=530bc307
DTITLE=Midori - Celtic Visions
DYEAR=2001
DGENRE=New Age
TTITLE0=Falcon
TTITLE1=The Homelands
TTITLE2=The Circle
TTITLE3=Where Time Stands Still
TTITLE4=Ancient Rite
TTITLE5=Magic Stone
TTITLE6=Earth Lore
EXTD=YEAR: 2001
EXTT0=
EXTT1=
EXTT2=
EXTT3=
EXTT4=
EXTT5=
EXTT6=
PLAYORDER=
